# xmcd
#
# Track frame offsets:
#	150
#	15083
#	30179
#	43499
#	56012
#	70933
#	84077
#	97441
#	108200
#	122419
#	138980
#	153222
#	168083
#	183984
#	199865
#	210276
#	225619
#	239273
#	252666
#	269123
#
# Disc length: 3738 seconds
#
# Revision: 1
# Processed by: cddbd v1.5.1PL0 Copyright (c) Steve Scherf et al.
# Submitted via: audiograbber 1.83.01
#
DISCID=080e9814
DTITLE=Various Artist - Polonaise 2005 cd2
DYEAR=2005
DGENRE=Carnaval
TTITLE0=Bloaskaken - Karnaval
TTITLE1=Op Rets - Ik heb 'n matje in munne nek
TTITLE2=Rene Schuurmans - Samen
TTITLE3=Zware Jongens - Biertje, wij houden van jou
TTITLE4=Gér Gedoan - Roende Heidi
TTITLE5=En Gij dan  - We gaan weet apres skien
TTITLE6=Denans - Kom zing maar mee
TTITLE7=WC Experience - Maag ik hier roke
TTITLE8=Shuffleclub - As brabander geboren
TTITLE9=En Gij dan - Is er hier een party
TTITLE10=Feestdj Maarten - Retteketet
TTITLE11=Ons Sjonnie - Ik heb een Gock
TTITLE12=Jack van Raamsdonk - Zo'n fijn gevoel
TTITLE13=Assekruus - Zeeman
TTITLE14=Peter Gayle - Zie je de meiden
TTITLE15=Ed Nieman - Zing met me mee
TTITLE16=Double DJ's - Boerenjongens (Boeruuuh)
TTITLE17=Nico van de wetering - Ik kom uit brabant
TTITLE18=John en de Hofzangers - Nie kieze, nie zeure
TTITLE19=Bloaskaken - De Souza
EXTD=
EXTT0=
EXTT1=
EXTT2=
EXTT3=
EXTT4=
EXTT5=
EXTT6=
EXTT7=
EXTT8=
EXTT9=
EXTT10=
EXTT11=
EXTT12=
EXTT13=
EXTT14=
EXTT15=
EXTT16=
EXTT17=
EXTT18=
EXTT19=
PLAYORDER=
